<mxfile host="app.diagrams.net" modified="2024-04-04T07:41:07.228Z" agent="Mozilla/5.0 (Windows NT 10.0; Win64; x64) AppleWebKit/537.36 (KHTML, like Gecko) Chrome/123.0.0.0 Safari/537.36 Edg/123.0.0.0" etag="JipAfJVTk6_chcel2gfP" version="24.2.1" type="device">
  <diagram id="3aImk4gulxweRHdjXPX9" name="process_write">
    <mxGraphModel dx="3161" dy="1782" grid="0" gridSize="10" guides="1" tooltips="1" connect="1" arrows="1" fold="1" page="0" pageScale="1" pageWidth="4681" pageHeight="3300" background="#ffffff" math="0" shadow="0">
      <root>
        <mxCell id="0" />
        <mxCell id="1" parent="0" />
        <mxCell id="0-GpDXKf5ze7SK5uVPCy-4" value="" style="group" parent="1" vertex="1" connectable="0">
          <mxGeometry x="-439" y="-247" width="1122" height="189" as="geometry" />
        </mxCell>
        <mxCell id="0-GpDXKf5ze7SK5uVPCy-1" value="&lt;font size=&quot;1&quot;&gt;&lt;b&gt;HTTP_CODE ret&lt;/b&gt;&lt;/font&gt;" style="rhombus;whiteSpace=wrap;html=1;" parent="0-GpDXKf5ze7SK5uVPCy-4" vertex="1">
          <mxGeometry x="458" width="205" height="83" as="geometry" />
        </mxCell>
        <mxCell id="0-GpDXKf5ze7SK5uVPCy-2" value="" style="strokeWidth=2;html=1;shape=mxgraph.flowchart.annotation_2;align=left;labelPosition=right;pointerEvents=1;direction=south;" parent="0-GpDXKf5ze7SK5uVPCy-4" vertex="1">
          <mxGeometry y="83" width="1122" height="106" as="geometry" />
        </mxCell>
        <mxCell id="0-GpDXKf5ze7SK5uVPCy-3" value="" style="strokeWidth=2;html=1;shape=mxgraph.flowchart.annotation_2;align=left;labelPosition=right;pointerEvents=1;direction=south;" parent="0-GpDXKf5ze7SK5uVPCy-4" vertex="1">
          <mxGeometry x="319" y="83" width="484" height="106" as="geometry" />
        </mxCell>
        <mxCell id="0-GpDXKf5ze7SK5uVPCy-5" value="&lt;font size=&quot;1&quot;&gt;INTERNAL_ERROR&lt;/font&gt;" style="rounded=1;whiteSpace=wrap;html=1;" parent="1" vertex="1">
          <mxGeometry x="-516" y="-58" width="160" height="52" as="geometry" />
        </mxCell>
        <mxCell id="0-GpDXKf5ze7SK5uVPCy-6" value="&lt;font size=&quot;1&quot;&gt;BAD_REQUEST&lt;/font&gt;" style="rounded=1;whiteSpace=wrap;html=1;" parent="1" vertex="1">
          <mxGeometry x="-202" y="-58" width="160" height="52" as="geometry" />
        </mxCell>
        <mxCell id="0-GpDXKf5ze7SK5uVPCy-7" value="&lt;font size=&quot;1&quot;&gt;FORBIDDEN_REQUEST&lt;/font&gt;" style="rounded=1;whiteSpace=wrap;html=1;" parent="1" vertex="1">
          <mxGeometry x="286" y="-58" width="177" height="53" as="geometry" />
        </mxCell>
        <mxCell id="0-GpDXKf5ze7SK5uVPCy-8" value="&lt;font size=&quot;1&quot;&gt;FILE_REQUEST&lt;/font&gt;" style="rounded=1;whiteSpace=wrap;html=1;" parent="1" vertex="1">
          <mxGeometry x="601" y="-58" width="160" height="52" as="geometry" />
        </mxCell>
      </root>
    </mxGraphModel>
  </diagram>
</mxfile>
